# xmcd CD database file
#
# Track frame offsets:
#	150
#	20052
#	51085
#	80877
#	108504
#	133470
#	158977
#	179197
#	204417
#	222567
#	258747
#	274842
#	294310
#
# Disc length: 4293 seconds
#
# Revision: 0
# Processed by: cddbd v1.4PL0 Copyright (c) Steve Scherf et al.
# Submitted via: CDex 1.50
#
DISCID=db10c30d
DTITLE=Various Artist - The Adventure Continues_ENJA 1995
DYEAR=1995
DGENRE=Jazz
TTITLE0=Kevin Mahogany - Stockholm Sweetnin'
TTITLE1=Eddie Allen - Frick and Frack
TTITLE2=Wayne Krantz - Panel Of Excerpts
TTITLE3=Fred Hersch - Point In Time
TTITLE4=Attila Zoller - Meant To Be
TTITLE5=Double Trio - Suite Domestique
TTITLE6=Abdullah Ibrahim - Tintinyana
TTITLE7=Okay Temiz - Komsu
TTITLE8=Matthias Schubert - Nichols' Dime
TTITLE9=Abraham Burton - I Can't Get Started
TTITLE10=Mark Helias - Pentahouve
TTITLE11=Subroto Roy Chowdhury - Sindhi Bhairavi
TTITLE12=Mel Martin - Zanzibar
EXTD=YEAR: 1995
EXTT0=
EXTT1=
EXTT2=
EXTT3=
EXTT4=
EXTT5=
EXTT6=
EXTT7=
EXTT8=
EXTT9=
EXTT10=
EXTT11=
EXTT12=
PLAYORDER=
